<?xml version="1.0" standalone="no"?>
<!DOCTYPE svg PUBLIC "-//W3C//DTD SVG 20010904//EN"
 "http://www.w3.org/TR/2001/REC-SVG-20010904/DTD/svg10.dtd">
<svg version="1.0" xmlns="http://www.w3.org/2000/svg"
 width="345.000000pt" height="345.000000pt" viewBox="0 0 345.000000 345.000000"
 preserveAspectRatio="xMidYMid meet">
<metadata>
Created by potrace 1.11, written by Peter Selinger 2001-2013
</metadata>
<g transform="translate(0.000000,345.000000) scale(0.100000,-0.100000)"
fill="#000000" stroke="none">
<path d="M229 3208 c-1 -2 -2 -668 -3 -1481 0 -976 2 -1481 9 -1486 6 -4 674
-7 1485 -7 l1475 1 3 1487 2 1488 -1485 0 c-817 0 -1485 -1 -1486 -2z m2895
-96 c-8 -5 -11 -391 -10 -1398 l1 -1390 -1407 0 c-775 0 -1404 2 -1400 5 10 8
9 2762 -1 2778 -6 10 286 13 1410 13 780 0 1413 -4 1407 -8z"/>
<path d="M1110 2269 c-93 -10 -143 -24 -197 -56 -51 -30 -113 -85 -113 -101 0
-7 -4 -12 -9 -12 -16 0 -41 -103 -41 -171 -1 -67 4 -101 17 -122 4 -6 8 -18 9
-26 2 -11 17 -31 59 -76 32 -35 149 -85 209 -90 147 -13 186 -19 225 -38 49
-24 60 -51 40 -99 -14 -34 -73 -55 -154 -54 -72 1 -117 20 -140 58 -9 15 -23
28 -31 28 -8 0 -14 3 -14 8 0 9 -167 8 -195 -1 -21 -7 -50 -57 -34 -57 6 0 9
-6 7 -12 -4 -18 23 -98 34 -98 4 0 8 -4 8 -9 0 -13 45 -61 56 -61 4 0 20 -11
34 -25 67 -65 269 -98 404 -68 64 15 166 60 166 75 0 4 4 7 10 5 5 -1 27 15
49 36 104 100 109 302 11 405 -22 23 -47 42 -55 42 -7 0 -15 5 -17 10 -2 6
-13 12 -25 14 -12 3 -30 9 -40 14 -22 11 -73 22 -133 28 -24 3 -46 7 -49 9 -2
3 -10 0 -18 -6 -10 -9 -13 -8 -13 1 0 7 -6 10 -14 7 -8 -3 -17 -3 -20 1 -4 3
-16 7 -27 9 -11 2 -30 9 -42 15 -12 7 -25 11 -28 10 -11 -3 -30 54 -27 79 9
60 52 87 138 87 71 0 94 -10 148 -64 33 -33 34 -33 128 -33 134 0 152 22 106
132 -9 20 -19 37 -24 37 -4 0 -8 6 -8 14 0 42 -169 142 -253 150 -26 3 -50 6
-54 8 -5 2 -42 1 -83 -3z"/>
<path d="M1825 2240 c-19 -21 -19 -40 -19 -493 1 -260 4 -487 7 -506 3 -19 14
-39 23 -44 18 -10 171 -10 211 0 32 7 37 30 39 208 1 88 2 163 3 166 1 8 37
20 65 24 23 3 65 -38 88 -85 10 -19 33 -62 53 -95 19 -33 42 -73 50 -90 36
-69 47 -85 76 -109 29 -25 36 -26 154 -26 122 0 138 4 141 35 1 21 -137 260
-161 277 -6 5 -6 8 0 8 6 0 5 3 -1 8 -6 4 -23 30 -39 57 -15 28 -34 59 -41 70
-26 36 -17 70 26 106 22 18 40 39 40 46 0 7 4 13 9 13 12 0 52 68 57 97 2 12
9 35 15 50 10 26 20 136 20 228 0 61 -19 71 -139 73 -139 1 -134 7 -146 -163
-6 -90 -24 -137 -72 -182 -32 -29 -57 -43 -87 -48 -23 -4 -52 -9 -63 -11 -42
-8 -48 17 -50 195 -1 91 -2 169 -3 173 -2 18 -71 34 -151 37 -77 2 -88 0 -105
-19z"/>
</g>
</svg>
